<svg xmlns="http://www.w3.org/2000/svg" viewBox="0 0 320 180" role="img" aria-label="Connect Four thumbnail">
  <rect width="320" height="180" fill="#05070a"/>
  <rect x="42" y="24" width="236" height="132" rx="18" fill="#0b3b77" stroke="#38bdf8" stroke-width="3"/>
  <g fill="#020304" opacity=".85">
    <circle cx="78" cy="58" r="15"/><circle cx="119" cy="58" r="15"/><circle cx="160" cy="58" r="15"/><circle cx="201" cy="58" r="15"/><circle cx="242" cy="58" r="15"/>
    <circle cx="78" cy="96" r="15"/><circle cx="119" cy="96" r="15"/><circle cx="160" cy="96" r="15"/><circle cx="201" cy="96" r="15"/><circle cx="242" cy="96" r="15"/>
    <circle cx="78" cy="134" r="15"/><circle cx="119" cy="134" r="15"/><circle cx="160" cy="134" r="15"/><circle cx="201" cy="134" r="15"/><circle cx="242" cy="134" r="15"/>
  </g>
  <g>
    <circle cx="78" cy="134" r="13" fill="#ef4444"/><circle cx="119" cy="134" r="13" fill="#facc15"/><circle cx="160" cy="134" r="13" fill="#ef4444"/><circle cx="201" cy="134" r="13" fill="#facc15"/>
    <circle cx="119" cy="96" r="13" fill="#ef4444"/><circle cx="160" cy="96" r="13" fill="#facc15"/><circle cx="201" cy="96" r="13" fill="#ef4444"/>
    <circle cx="160" cy="58" r="13" fill="#ef4444"/>
  </g>
</svg>
