<svg xmlns="http://www.w3.org/2000/svg" viewBox="0 0 320 180" role="img" aria-label="Abuda the Alien icon">
  <defs>
    <linearGradient id="bg" x1="0" y1="0" x2="1" y2="1"><stop stop-color="#05070a"/><stop offset="1" stop-color="#111827"/></linearGradient>
    <radialGradient id="glow" cx="78%" cy="20%" r="62%"><stop stop-color="#22c55e" stop-opacity=".42"/><stop offset="1" stop-color="#22c55e" stop-opacity="0"/></radialGradient>
  </defs>
  <rect width="320" height="180" rx="18" fill="url(#bg)"/>
  <rect width="320" height="180" rx="18" fill="url(#glow)"/>
  <path d="M24 146C82 126 129 151 184 130c43-16 74-12 112 6" fill="none" stroke="#fff" stroke-opacity=".08" stroke-width="7" stroke-linecap="round"/>
  <ellipse cx="160" cy="92" rx="55" ry="48" fill="#22c55e"/><path d="M115 104c20 32 70 32 90 0" fill="#16a34a" opacity=".55"/><ellipse cx="139" cy="84" rx="15" ry="22" fill="#020617"/><ellipse cx="181" cy="84" rx="15" ry="22" fill="#020617"/><circle cx="134" cy="78" r="4" fill="#e0f2fe"/><circle cx="176" cy="78" r="4" fill="#e0f2fe"/><path d="M133 44l-20-20M187 44l20-20" stroke="#22c55e" stroke-width="8" stroke-linecap="round"/><circle cx="111" cy="22" r="8" fill="#86efac"/><circle cx="209" cy="22" r="8" fill="#86efac"/>
</svg>